# xmcd
#
# Track frame offsets:
#	150
#	5404
#	13658
#	36110
#	51864
#	60100
#	73421
#	89679
#	108572
#	121704
#	133120
#	149302
#	164758
#
# Disc length: 2392 seconds
#
# Revision: 1
# Processed by: cddbd v1.5.1PL0 Copyright (c) Steve Scherf et al.
# Submitted via: audiograbber 1.83.01
#
DISCID=b709560d
DTITLE=Mehter 3 - Serhat Türküleri
DYEAR=1900
DGENRE=
TTITLE0=Mehter musikis
TTITLE1=Hicaz pesrevi
TTITLE2=Esti nesimi nevbahar
TTITLE3=Ey gaziler yol göründü
TTITLE4=Serhat Türküleri
TTITLE5=Estergon kalesiTrack  6
TTITLE6=Sivastopol Türküsü
TTITLE7=Kirim'dan gelirem
TTITLE8=Ihtiyatlar silah catmis
TTITLE9=Bülbüller ötüyor
TTITLE10=Buna er meydani derler
TTITLE11=Genç Osman
TTITLE12=Cirpindi Karadeniz
EXTD=
EXTT0=
EXTT1=
EXTT2=
EXTT3=
EXTT4=
EXTT5=
EXTT6=
EXTT7=
EXTT8=
EXTT9=
EXTT10=
EXTT11=
EXTT12=
PLAYORDER=
